<svg width="97" height="94" xmlns="http://www.w3.org/2000/svg" xmlns:xlink="http://www.w3.org/1999/xlink" xml:space="preserve" overflow="hidden"><g transform="translate(-936 -254)"><g><g><g><g><path d="M14.375 53.3015C14.3728 50.5492 15.4886 47.9139 17.4666 46 14.6955 41.3959 16.1814 35.4171 20.7854 32.646 21.0187 32.5056 21.2578 32.375 21.5021 32.2546 20.2321 27.994 22.6566 23.5105 26.9173 22.2406 26.9899 22.219 27.0629 22.1984 27.1362 22.1787 27.4509 17.5041 31.4955 13.9699 36.1701 14.2846 40.6222 14.5844 44.0809 18.2819 44.0833 22.7441L44.0833 69.8529C44.0841 73.3689 41.2344 76.2197 37.7185 76.2205 34.9354 76.221 32.4746 74.4138 31.6423 71.7581 26.613 72.8637 21.6397 69.6831 20.5341 64.6539 20.3886 63.992 20.3157 63.3162 20.3167 62.6386 20.3167 62.6098 20.3167 62.582 20.3167 62.5542 16.6973 60.8971 14.3761 57.2823 14.375 53.3015Z" fill="#000000" fill-rule="nonzero" fill-opacity="1" transform="matrix(1.04348 0 0 1 937 255)"/><path d="M73.1113 20.3579C72.0527 20.3582 71.1943 19.5003 71.194 18.4418 71.1939 17.9333 71.3957 17.4457 71.7552 17.0861L75.8205 13.0199C76.5688 12.2713 77.7824 12.2711 78.5311 13.0194 79.2798 13.7678 79.2799 14.9814 78.5316 15.7301L74.4625 19.7963C74.1045 20.1554 73.6183 20.3574 73.1113 20.3579Z" fill="#000000" fill-rule="nonzero" fill-opacity="1" transform="matrix(1.04348 0 0 1 937 255)"/><path d="M79.7257 33.2235C78.6671 33.2247 77.808 32.3675 77.8069 31.3089 77.806 30.5373 78.268 29.8403 78.9791 29.5406L84.9879 27.0001C85.9532 26.5658 87.0879 26.9963 87.5222 27.9617 87.9565 28.927 87.5259 30.0616 86.5606 30.4959 86.5343 30.5078 86.5078 30.519 86.481 30.5296L80.4713 33.0711C80.2354 33.1713 79.9819 33.223 79.7257 33.2235Z" fill="#000000" fill-rule="nonzero" fill-opacity="1" transform="matrix(1.04348 0 0 1 937 255)"/><path d="M88.1667 47.4691 82.8594 47.4691C81.8008 47.4691 80.9427 46.611 80.9427 45.5525 80.9427 44.4939 81.8008 43.6358 82.8594 43.6358L88.1667 43.6358C89.2252 43.6358 90.0833 44.4939 90.0833 45.5525 90.0833 46.611 89.2252 47.4691 88.1667 47.4691Z" fill="#000000" fill-rule="nonzero" fill-opacity="1" transform="matrix(1.04348 0 0 1 937 255)"/><path d="M87.2026 64.8677C86.9284 64.8677 86.6574 64.8085 86.4081 64.6942L81.3194 62.3703C80.3563 61.9302 79.9325 60.7927 80.3725 59.8297 80.8126 58.8667 81.9501 58.4428 82.9131 58.8829L88.0009 61.2068C88.9642 61.6457 89.3893 62.7824 88.9504 63.7456 88.6385 64.4303 87.9549 64.8691 87.2026 64.8677Z" fill="#000000" fill-rule="nonzero" fill-opacity="1" transform="matrix(1.04348 0 0 1 937 255)"/><path d="M77.7726 79.2407C77.2643 79.2407 76.7769 79.0386 76.4175 78.6792L72.3542 74.613C71.5928 73.8775 71.5717 72.6642 72.307 71.9028 73.0424 71.1414 74.2558 71.1203 75.0172 71.8556 75.0332 71.8711 75.0489 71.8868 75.0643 71.9028L79.1305 75.968C79.8795 76.7161 79.8801 77.9297 79.1321 78.6786 78.7724 79.0386 78.2843 79.2409 77.7755 79.2407Z" fill="#000000" fill-rule="nonzero" fill-opacity="1" transform="matrix(1.04348 0 0 1 937 255)"/><path d="M77.625 53.3015C77.6276 50.5493 76.5121 47.914 74.5344 46 77.3053 41.3958 75.8191 35.417 71.2149 32.6461 70.9815 32.5056 70.7422 32.375 70.4979 32.2546 71.768 27.994 69.3437 23.5105 65.083 22.2404 65.0106 22.2189 64.9378 22.1983 64.8648 22.1787 64.558 17.5037 60.5194 13.9624 55.8444 14.2692 51.3807 14.5621 47.9114 18.2708 47.9167 22.7441L47.9167 69.8529C47.9177 73.3694 50.7691 76.2192 54.2857 76.2183 57.0668 76.2174 59.5257 74.4116 60.3587 71.7581 65.3874 72.8637 70.3602 69.6835 71.4659 64.6549 71.6115 63.9927 71.6844 63.3166 71.6833 62.6386 71.6833 62.6098 71.6833 62.582 71.6833 62.5542 75.3027 60.8971 77.6239 57.2823 77.625 53.3015ZM61.0458 53.6044C61.0458 53.6044 53.3111 47.6895 53.3111 42.9123 53.3111 39.7277 58.1795 36.3151 61.0458 42.0028 63.9122 36.3151 68.7796 39.7277 68.7796 42.9123 68.7834 47.6895 61.0458 53.6044 61.0458 53.6044Z" fill="#000000" fill-rule="nonzero" fill-opacity="1" transform="matrix(1.04348 0 0 1 937 255)"/></g></g></g></g></g></svg>