<svg width="98" height="93" xmlns="http://www.w3.org/2000/svg" xmlns:xlink="http://www.w3.org/1999/xlink" xml:space="preserve" overflow="hidden"><g transform="translate(-750 -509)"><g><g><g><g><path d="M78.0083 18.5917C77.2417 14.0875 73.2167 10.6375 68.5208 10.6375 68.0417 10.6375 67.4667 10.7333 66.9875 10.7333 64.6875 7.85833 61.1417 6.0375 57.1167 6.0375 51.2708 6.0375 46.3833 9.96667 44.85 15.3333 39.4833 16.3875 35.4583 21.0833 35.4583 26.7375 35.4583 33.1583 40.6333 38.3333 46.9583 38.3333L46.9583 38.3333C46.9583 38.3333 75.325 38.3333 75.7083 38.3333 81.2667 38.3333 85.3875 33.8292 85.3875 28.2708 85.3875 23.6708 82.225 19.8375 78.0083 18.5917ZM75.1333 32.5833 46.7667 32.5833C44.5625 32.3917 42.6458 31.1458 41.6875 29.2292 40.825 27.2167 41.0167 24.9167 42.3583 23.0958 43.5083 21.5625 45.2333 20.7 47.0542 20.7 47.3417 20.7 47.725 20.7 48.0125 20.7958L49.7375 21.0833 49.7375 19.1667C49.7375 15.7167 52.0375 12.7458 55.3917 11.9792 55.9667 11.8833 56.5417 11.7875 57.1167 11.7875 57.1167 11.7875 57.1167 11.7875 57.1167 11.7875 57.1167 11.7875 57.1167 11.7875 57.1167 11.7875 59.8958 11.7875 62.3875 13.3208 63.6333 15.8125L64.2083 16.9625 65.4542 16.4833C66.0292 16.2917 66.7 16.1958 67.3708 16.1958 68.6167 16.1958 69.7667 16.5792 70.8208 17.25 72.3542 18.4 73.3125 20.2208 73.3125 22.1375L73.3125 23.6708 75.2292 23.6708C77.7208 23.6708 79.7333 25.6833 79.7333 28.175 79.6375 30.5708 77.625 32.5833 75.1333 32.5833Z" fill="#000000" fill-rule="nonzero" fill-opacity="1" transform="matrix(1.04348 0 0 1 751 510)"/><path d="M49.6417 42.1667 9.775 42.1667C8.05 42.1667 6.70833 43.5083 6.70833 45.2333L6.70833 72.6417C6.70833 74.3667 8.05 75.7083 9.775 75.7083 9.775 75.7083 9.775 75.7083 9.775 75.7083L24.9167 75.7083 24.9167 79.5417 18.2083 79.5417 18.2083 85.2917 41.2083 85.2917 41.2083 79.5417 34.5 79.5417 34.5 75.7083 49.6417 75.7083C51.3667 75.7083 52.7083 74.3667 52.7083 72.6417L52.7083 45.2333C52.7083 43.5083 51.3667 42.1667 49.6417 42.1667ZM46.9583 69.9583 12.4583 69.9583 12.4583 47.9167 46.9583 47.9167 46.9583 69.9583Z" fill="#000000" fill-rule="nonzero" fill-opacity="1" transform="matrix(1.04348 0 0 1 751 510)"/><path d="M66.8917 42.1667C67.85 43.4125 68.3292 45.0417 68.3292 46.575 68.3292 49.45 66.7 52.0375 64.2083 53.3792L64.2083 49.45 57.2125 56.5417 64.2083 63.4417 64.2083 59.5125C71.3958 57.5958 75.6125 50.2167 73.6 43.0292 73.5042 42.7417 73.4083 42.4542 73.3125 42.1667L66.8917 42.1667Z" fill="#000000" fill-rule="nonzero" fill-opacity="1" transform="matrix(1.04348 0 0 1 751 510)"/><path d="M21.9458 38.3333C21.1792 37.375 20.5083 35.4583 20.5083 33.925 20.5083 31.05 22.1375 28.4625 24.6292 27.1208L24.6292 31.05 31.625 23.9583 24.6292 17.0583 24.6292 20.9875C17.4417 22.9042 13.225 30.2833 15.2375 37.4708 15.3333 37.7583 15.4292 38.0458 15.525 38.3333L21.9458 38.3333Z" fill="#000000" fill-rule="nonzero" fill-opacity="1" transform="matrix(1.04348 0 0 1 751 510)"/></g></g></g></g></g></svg>