<svg width="96" height="93" xmlns="http://www.w3.org/2000/svg" xmlns:xlink="http://www.w3.org/1999/xlink" xml:space="preserve" overflow="hidden"><g transform="translate(-200 -260)"><g><g><g><g><path d="M54.118 71.6757 37.6242 71.6757C36.0988 71.6757 34.8622 72.9122 34.8622 74.4376 34.8622 75.963 36.0988 77.1995 37.6242 77.1995L54.118 77.1995C55.6434 77.1995 56.88 75.963 56.88 74.4376 56.88 72.9122 55.6434 71.6757 54.118 71.6757Z" fill="#000000" fill-rule="nonzero" fill-opacity="1" transform="matrix(1.04348 0 0 1 200 261)"/><path d="M45.8716 86.5643C49.0037 86.5639 51.6089 84.1553 51.8545 81.0328L39.8878 81.0328C40.1334 84.1557 42.7392 86.5644 45.8716 86.5643Z" fill="#000000" fill-rule="nonzero" fill-opacity="1" transform="matrix(1.04348 0 0 1 200 261)"/><path d="M69.804 42.6209 69.804 41.7929C69.5651 28.7205 58.9458 18.2233 45.8716 18.1355 32.7964 18.2222 22.1756 28.7196 21.9362 41.7929L21.9362 42.6209C22.0256 45.4561 22.5889 48.2565 23.6028 50.9057 24.573 53.4058 25.9819 55.7126 27.7629 57.7175 29.9537 60.1134 32.3562 64.7594 33.3692 66.8217 33.6797 67.4475 34.3179 67.8433 35.0165 67.8433L56.7237 67.8433C57.4225 67.843 58.0609 67.4473 58.3721 66.8217 59.3841 64.7603 61.7866 60.1134 63.9774 57.7175 65.7584 55.7126 67.1673 53.4058 68.1375 50.9057 69.151 48.2563 69.7142 45.4561 69.804 42.6209ZM64.2812 42.5251C64.1979 44.7315 63.7525 46.9091 62.9625 48.9708 62.2323 50.8289 61.1788 52.543 59.8508 54.0337 57.7409 56.577 55.9339 59.357 54.4659 62.3175L37.2715 62.3175C35.8039 59.3568 33.9968 56.5768 31.8866 54.0337 30.5586 52.5432 29.5054 50.829 28.7759 48.9708 27.9864 46.9096 27.5415 44.7326 27.4591 42.527L27.4591 41.837C27.6451 31.785 35.8162 23.717 45.8697 23.6584 55.9239 23.7165 64.0953 31.7862 64.2792 41.8389Z" fill="#000000" fill-rule="nonzero" fill-opacity="1" transform="matrix(1.04348 0 0 1 200 261)"/><path d="M46.0594 14.375C47.118 14.375 47.9761 13.5169 47.9761 12.4583L47.9761 5.75C47.9761 4.69145 47.118 3.83333 46.0594 3.83333 45.0008 3.83333 44.1427 4.69145 44.1427 5.75L44.1427 12.4583C44.1427 13.5169 45.0008 14.375 46.0594 14.375Z" fill="#000000" fill-rule="nonzero" fill-opacity="1" transform="matrix(1.04348 0 0 1 200 261)"/><path d="M23.3124 22.8083C24.0478 23.5697 25.2612 23.5908 26.0226 22.8555 26.784 22.1201 26.8051 20.9067 26.0697 20.1453 26.0543 20.1293 26.0386 20.1136 26.0226 20.0982L21.275 15.3506C20.5136 14.6152 19.3003 14.6362 18.5648 15.3977 17.8474 16.1404 17.8474 17.318 18.5648 18.0608Z" fill="#000000" fill-rule="nonzero" fill-opacity="1" transform="matrix(1.04348 0 0 1 200 261)"/><path d="M67.4772 23.7293C67.9855 23.7292 68.4729 23.5272 68.8323 23.1677L73.5751 18.424C74.2951 17.648 74.2496 16.4352 73.4736 15.7153 72.7378 15.0326 71.6 15.0332 70.8649 15.7167L66.125 20.4575C65.3766 21.2062 65.3768 22.4197 66.1254 23.1681 66.4848 23.5274 66.972 23.7292 67.4801 23.7293Z" fill="#000000" fill-rule="nonzero" fill-opacity="1" transform="matrix(1.04348 0 0 1 200 261)"/><path d="M16.2917 39.7708 9.58333 39.7708C8.52479 39.7708 7.66667 40.6289 7.66667 41.6875 7.66667 42.7461 8.52479 43.6042 9.58333 43.6042L16.2917 43.6042C17.3502 43.6042 18.2083 42.7461 18.2083 41.6875 18.2083 40.6289 17.3502 39.7708 16.2917 39.7708Z" fill="#000000" fill-rule="nonzero" fill-opacity="1" transform="matrix(1.04348 0 0 1 200 261)"/><path d="M23.3124 60.5053 18.5687 65.2491C17.7893 65.9654 17.7382 67.1779 18.4545 67.9572 19.1708 68.7366 20.3833 68.7877 21.1627 68.0715 21.2017 68.0356 21.2392 67.9982 21.275 67.9593L26.0187 63.2155C26.7801 62.4801 26.8012 61.2667 26.0659 60.5053 25.3305 59.7439 24.1171 59.7229 23.3557 60.4582 23.3397 60.4736 23.324 60.4893 23.3086 60.5053Z" fill="#000000" fill-rule="nonzero" fill-opacity="1" transform="matrix(1.04348 0 0 1 200 261)"/><path d="M68.8323 60.1421C68.1115 59.3669 66.8988 59.3228 66.1235 60.0435 65.3483 60.7643 65.3041 61.977 66.0249 62.7523 66.0571 62.7868 66.0904 62.8202 66.125 62.8523L70.8678 67.5951C71.6292 68.3305 72.8425 68.3094 73.578 67.5479 74.2954 66.8052 74.2954 65.6276 73.578 64.8849Z" fill="#000000" fill-rule="nonzero" fill-opacity="1" transform="matrix(1.04348 0 0 1 200 261)"/><path d="M82.1771 39.7057 75.4688 39.7057C74.4102 39.7057 73.5521 40.5638 73.5521 41.6223 73.5521 42.6809 74.4102 43.539 75.4688 43.539L82.1771 43.539C83.2357 43.539 84.0938 42.6809 84.0938 41.6223 84.0938 40.5638 83.2357 39.7057 82.1771 39.7057Z" fill="#000000" fill-rule="nonzero" fill-opacity="1" transform="matrix(1.04348 0 0 1 200 261)"/></g></g></g></g></g></svg>