<svg width="96" height="94" xmlns="http://www.w3.org/2000/svg" xmlns:xlink="http://www.w3.org/1999/xlink" xml:space="preserve" overflow="hidden"><g transform="translate(-176 -514)"><g><g><g><g><path d="M43.3377 48.759 37.9165 43.3377 43.3377 37.9165 48.759 43.3377C49.891 44.4512 51.7113 44.4362 52.8248 43.3042 53.9254 42.1852 53.9252 40.3903 52.8243 39.2715L47.403 33.8512 50.7917 30.4625 44.0153 23.6862C39.1928 18.8619 31.6439 18.0912 25.9459 21.8414L23.7235 19.5414C18.839 14.515 12.133 11.672 5.12421 11.6562L1.91667 11.6562 1.91667 17.4062 5.12421 17.4062C10.5772 17.417 15.7951 19.6285 19.595 23.5395L21.8778 25.9009C18.0956 31.6008 18.854 39.1763 23.691 44.0134L30.4625 50.7917 33.8512 47.403 39.2715 52.8243C40.4032 53.938 42.2236 53.9234 43.3373 52.7917 44.4382 51.673 44.4384 49.878 43.3377 48.759Z" fill="#000000" fill-rule="nonzero" fill-opacity="1" transform="matrix(1.04348 0 0 1 176 515)"/><path d="M86.9275 74.75C81.704 74.7609 76.6831 72.7301 72.9359 69.091L70.3148 66.5553C74.0624 60.8566 73.2915 53.3092 68.4691 48.4859L61.6927 41.7095 41.3645 62.0396 48.1409 68.816C52.9782 73.6526 60.5537 74.4106 66.2534 70.6282L68.9367 73.2243C73.7551 77.9034 80.2112 80.5143 86.9275 80.5L90.0833 80.5 90.0833 74.75Z" fill="#000000" fill-rule="nonzero" fill-opacity="1" transform="matrix(1.04348 0 0 1 176 515)"/></g></g></g></g></g></svg>