<svg width="97" height="95" xmlns="http://www.w3.org/2000/svg" xmlns:xlink="http://www.w3.org/1999/xlink" xml:space="preserve" overflow="hidden"><g transform="translate(-997 -513)"><g><g><g><g><path d="M46.7712 77.5C51.019 74.1465 55.0718 70.553 58.9097 66.7372 64.4731 61.4368 69.3927 55.4994 73.5669 49.0478 77.4419 42.8091 81.1425 34.7103 78.5947 27.3091 76.5312 21.1866 70.8059 15.9844 64.2281 15.3547 55.9163 14.5312 49.9003 21.5644 46.5 28.2972 43.3903 22.1359 38.2463 15.7809 30.8159 15.3159 24.2188 14.9091 18.0769 19.5494 15.2384 25.3134 11.6831 32.55 14.5797 40.6875 18.3191 47.1878 22.1941 53.9691 27.3478 59.9269 32.7922 65.4391 37.084 69.83 41.6634 73.9305 46.5 77.7131ZM31 44.5625 33.9062 35.8438 35.6306 30.6609C36.0763 29.3144 36.7641 27.5125 38.6241 28.2875 39.7478 28.7622 39.8156 29.9247 40.0094 30.9419L40.8134 35.2334 43.1384 47.6334 44.6787 55.8678 50.2975 41.0072 51.5375 37.7328C51.8959 36.7641 52.2641 35.7953 53.475 35.6888 55.0153 35.5337 55.4706 36.8512 55.8097 38.0138L57.0013 42.1019 59.365 50.2297 61.6997 47.6625C62.4465 46.6853 63.2868 45.7833 64.2087 44.9694 65.1775 44.2913 66.9697 44.6012 68.0837 44.6012L71.6875 44.6012C70.9706 45.8897 70.1763 47.1878 69.3141 48.4762L66.1656 48.4762C64.1022 50.7528 62.1259 53.1747 59.9366 55.335 59.2498 56.1556 58.0279 56.2642 57.2073 55.5775 57.0459 55.4424 56.9076 55.282 56.7978 55.1025 56.5873 54.6858 56.4341 54.2427 56.3425 53.785L54.7247 48.2534 53.4072 43.7197C50.9369 50.2394 48.5634 56.7687 46.0156 63.2594 45.8731 63.7881 45.564 64.257 45.1341 64.5963 44.252 65.2021 43.0459 64.9782 42.4401 64.0963 42.2853 63.8709 42.18 63.6155 42.1309 63.3466 41.9081 62.4553 41.7919 61.5253 41.6175 60.6341L39.1666 47.5559 37.3356 37.7812 34.6038 45.9866C34.1872 47.2072 33.8578 48.3988 32.2884 48.4762 30.8644 48.5441 29.4306 48.4762 28.0163 48.4762L23.6569 48.4762C22.8044 47.1878 22.0003 45.8897 21.2834 44.6012Z" fill="#000000" fill-rule="nonzero" fill-opacity="1" transform="matrix(1.03226 0 0 1 998 514)"/></g></g></g></g></g></svg>