<svg width="97" height="93" xmlns="http://www.w3.org/2000/svg" xmlns:xlink="http://www.w3.org/1999/xlink" xml:space="preserve" overflow="hidden"><g transform="translate(-720 -260)"><g><g><g><g><path d="M72.8333 21.0833 72.8333 55.5833 19.1667 55.5833 19.1667 21.0833ZM80.5 57.5 78.5833 57.5 78.5833 18.2083 80.5 18.2083C81.5586 18.2083 82.4167 17.3502 82.4167 16.2917 82.4167 15.2331 81.5586 14.375 80.5 14.375L47.9167 14.375 47.9167 12.4583C47.9167 11.3998 47.0586 10.5417 46 10.5417 44.9414 10.5417 44.0833 11.3998 44.0833 12.4583L44.0833 14.375 11.5 14.375C10.4414 14.375 9.58333 15.2331 9.58333 16.2917 9.58333 17.3502 10.4414 18.2083 11.5 18.2083L13.4167 18.2083 13.4167 57.5 11.5 57.5C10.4414 57.5 9.58333 58.3581 9.58333 59.4167 9.58333 60.4752 10.4414 61.3333 11.5 61.3333L40.7675 61.3333 26.0092 76.0917C25.2602 76.8486 25.2666 78.0692 26.0235 78.8181 26.7804 79.5671 28.0011 79.5606 28.75 78.8037L44.0833 63.4704 44.0833 80.5C44.0833 81.5586 44.9414 82.4167 46 82.4167 47.0586 82.4167 47.9167 81.5586 47.9167 80.5L47.9167 63.4417 63.25 78.775C63.9989 79.5239 65.2131 79.5239 65.9621 78.775 66.711 78.0261 66.711 76.8119 65.9621 76.0629L51.2325 61.3333 80.5 61.3333C81.5586 61.3333 82.4167 60.4752 82.4167 59.4167 82.4167 58.3581 81.5586 57.5 80.5 57.5Z" fill="#000000" fill-rule="nonzero" fill-opacity="1" transform="matrix(1.04348 0 0 1 721 261)"/><path d="M41.2083 25.875 50.7917 25.875 50.7917 31.625 41.2083 31.625Z" fill="#000000" fill-rule="nonzero" fill-opacity="1" transform="matrix(1.04348 0 0 1 721 261)"/><path d="M26.8333 45.0417 36.4167 45.0417 36.4167 50.7917 26.8333 50.7917Z" fill="#000000" fill-rule="nonzero" fill-opacity="1" transform="matrix(1.04348 0 0 1 721 261)"/><path d="M41.2083 45.0417 50.7917 45.0417 50.7917 50.7917 41.2083 50.7917Z" fill="#000000" fill-rule="nonzero" fill-opacity="1" transform="matrix(1.04348 0 0 1 721 261)"/><path d="M55.5833 45.0417 65.1667 45.0417 65.1667 50.7917 55.5833 50.7917Z" fill="#000000" fill-rule="nonzero" fill-opacity="1" transform="matrix(1.04348 0 0 1 721 261)"/><path d="M46.9583 37.375 46.9583 32.5833 45.0417 32.5833 45.0417 37.375 30.6667 37.375 30.6667 44.0833 32.5833 44.0833 32.5833 39.2917 45.0417 39.2917 45.0417 44.0833 46.9583 44.0833 46.9583 39.2917 59.4167 39.2917 59.4167 44.0833 61.3333 44.0833 61.3333 37.375 46.9583 37.375Z" fill="#000000" fill-rule="nonzero" fill-opacity="1" transform="matrix(1.04348 0 0 1 721 261)"/></g></g></g></g></g></svg>