<svg width="97" height="93" xmlns="http://www.w3.org/2000/svg" xmlns:xlink="http://www.w3.org/1999/xlink" xml:space="preserve" overflow="hidden"><g transform="translate(-433 -509)"><g><g><g><g><path d="M47.9224 28.8458 47.9224 32.6792C47.2516 32.6792 46.6766 32.5833 46.0057 32.5833 45.3654 32.5674 44.7247 32.5994 44.0891 32.6792L44.0891 28.8458C40.4813 29.0228 36.9239 29.7667 33.5474 31.05L34.9849 34.5C33.7391 34.9792 32.5891 35.4583 31.4391 36.0333L30.0016 32.4875C28.2225 33.3601 26.523 34.3861 24.9224 35.5542L20.8016 31.4333C28.0598 25.9513 36.9099 22.99 46.0057 23 69.2937 23 88.1724 41.8787 88.1724 65.1667L88.1724 69 82.4224 69 82.4224 65.1667C82.4099 61.3253 81.7955 57.5095 80.6016 53.8583L77.0557 55.2958C76.6724 54.05 76.1932 52.9 75.7141 51.75L79.2599 50.3125C77.812 47.0642 75.8726 44.0582 73.5099 41.4L70.8266 44.0833C69.9815 43.1105 69.0858 42.1829 68.1432 41.3042L70.8266 38.6208C68.1915 36.171 65.2232 34.1061 62.0099 32.4875L60.5724 36.0333C59.4224 35.4583 58.2724 34.9792 57.0266 34.5L58.4641 30.9542C55.0826 29.7027 51.5252 28.9912 47.9224 28.8458Z" fill="#000000" fill-rule="nonzero" fill-opacity="1" transform="matrix(1.04348 0 0 1 434 510)"/><path d="M11.4099 41.0167 15.5307 45.1375C14.475 46.7564 13.5458 48.4546 12.7516 50.2167L16.2974 51.75C15.8182 52.9 15.3391 54.1458 14.9557 55.2958L11.4099 53.8583C10.216 57.5095 9.60164 61.3253 9.58908 65.1667L9.58908 69 3.83908 69 3.83908 65.1667C3.81959 56.5297 6.46326 48.0967 11.4099 41.0167Z" fill="#000000" fill-rule="nonzero" fill-opacity="1" transform="matrix(1.04348 0 0 1 434 510)"/><path d="M48.6891 63.4417C48.8807 63.5375 48.9766 63.7292 49.1682 63.9208 50.5487 65.558 50.3407 68.0041 48.7037 69.3846 47.0665 70.7651 44.6203 70.5571 43.2398 68.92 43.2354 68.9147 43.231 68.9094 43.2266 68.9042L13.4224 33.5417Z" fill="#000000" fill-rule="nonzero" fill-opacity="1" transform="matrix(1.04348 0 0 1 434 510)"/></g></g></g></g></g></svg>