<svg width="96" height="93" xmlns="http://www.w3.org/2000/svg" xmlns:xlink="http://www.w3.org/1999/xlink" xml:space="preserve" overflow="hidden"><g transform="translate(-472 -260)"><g><g><g><g><path d="M31.1765 32.1099 33.0932 32.1099 33.0932 30.9417C41.9376 33.625 46.1092 40.0018 45.7863 50.3067L43.6348 50.3067 43.6348 57.5 50.829 57.5 50.829 50.3067 48.6584 50.3067C48.9325 40.9151 45.7623 34.27 39.1978 30.452L53.2642 33.0395C53.485 34.4312 54.684 35.4564 56.0932 35.4583 56.1143 35.4583 56.1334 35.4526 56.1535 35.4526L56.0932 48.3958C56.0932 48.6604 56.3077 48.875 56.5723 48.875 56.7232 48.875 56.8652 48.804 56.9557 48.6833L61.3736 43.1327 68.4787 42.9975C68.7433 42.9975 68.9578 42.783 68.9578 42.5184 68.9578 42.3675 68.8868 42.2255 68.7662 42.135L58.3922 34.294C59.3455 33.0308 59.0943 31.234 57.8311 30.2806 56.5679 29.3274 54.7711 29.5786 53.8178 30.8418 53.7429 30.9411 53.6744 31.0452 53.613 31.1535L33.0932 27.3815 33.0932 24.9167 25.8999 24.9167 25.8999 32.1099 31.1765 32.1099ZM48.9124 55.5833 45.5515 55.5833 45.5515 52.2234 48.9124 52.2234ZM27.8166 26.8333 31.1765 26.8333 31.1765 30.1933 27.8166 30.1933Z" fill="#000000" fill-rule="nonzero" fill-opacity="1" transform="matrix(1.04348 0 0 1 472 261)"/><path d="M80.5 14.375 11.5 14.375C9.38553 14.3813 7.67298 16.0939 7.66667 18.2083L7.66667 64.2083C7.67298 66.3228 9.38553 68.0353 11.5 68.0417L38.3333 68.0417 38.3333 73.7917 28.75 73.7917 28.75 79.5417 63.25 79.5417 63.25 73.7917 53.6667 73.7917 53.6667 68.0417 80.5 68.0417C82.6145 68.0353 84.327 66.3228 84.3333 64.2083L84.3333 18.2083C84.327 16.0939 82.6145 14.3813 80.5 14.375ZM78.5833 62.2917 13.4167 62.2917 13.4167 20.125 78.5833 20.125Z" fill="#000000" fill-rule="nonzero" fill-opacity="1" transform="matrix(1.04348 0 0 1 472 261)"/></g></g></g></g></g></svg>