<svg width="1600" height="1076" viewBox="0 0 1600 1076" fill="none" xmlns="http://www.w3.org/2000/svg">
<g clip-path="url(#clip0_1556_1152)">
<path opacity="0.4" d="M1490.27 773.81C1246.16 788.343 1405.82 464.944 1405.82 464.944C1405.82 464.944 1490.2 368.996 1390.68 290.098C1158.97 106.399 1066.85 248.41 1085.56 379.368C1104.27 510.326 971.663 495.098 971.663 495.098C873.115 480.727 909.17 611.381 991.765 683.59C1274.6 930.859 837.775 860.039 961.547 904.479C1085.32 948.92 1142.72 915.328 1142.72 915.328C1370.66 657.072 1264.72 756.347 1373.91 890.673C1445.84 840.26 1860.92 751.744 1490.27 773.81Z" fill="#BA00D3" fill-opacity="0.8"/>
<path opacity="0.4" d="M553.054 875.149C822.958 964.24 1042.62 939.334 1032.37 907.79C1063.83 870.379 919.135 880.195 982.34 701.523C1061.35 478.183 889.144 670.043 793.886 734.712C698.629 799.381 594.738 567.892 559.805 460.72C536.222 377.303 449.261 213.8 290.087 227.118C91.118 243.765 -309.487 133.451 -300.394 248.268C-291.301 363.085 -366.382 353.998 -85.1091 435.939C196.164 517.88 297.125 484.982 231.162 622.495C178.392 732.506 165.898 665.13 150.388 671.061C119.935 878.939 215.674 763.785 553.054 875.149Z" fill="#8700FF" fill-opacity="0.8"/>
<rect width="1600" height="1141" fill="white" fill-opacity="0.11"/>
</g>
<defs>
<clipPath id="clip0_1556_1152">
<rect width="1600" height="1141" fill="white"/>
</clipPath>
</defs>
</svg>
