<svg width="39" height="40" viewBox="0 0 39 40" fill="none" xmlns="http://www.w3.org/2000/svg">
<path d="M32.4305 6.96734L34.2434 8.69884L35.5696 10.4509C40.2593 17.0691 39.3028 26.7742 33.8244 32.6445C26.3643 40.6385 13.9806 41.3822 5.92052 33.8382C-1.14999 26.8929 -2.16444 16.469 4.38086 8.78977C11.7998 0.0856143 23.9813 -0.263893 32.4305 6.96734Z" fill="black"/>
<path d="M18.825 3.74497C19.1452 3.68295 19.5031 3.70099 19.8269 3.71679C27.5477 4.09213 34.7775 9.41296 36.3664 17.1358C36.5339 17.9503 36.6627 18.8127 36.6219 19.6447C32.9957 19.7113 29.0586 16.2522 27.276 13.3797C26.515 12.1535 26.3747 10.5363 24.922 10.6123C24.5258 10.8407 22.754 12.738 22.452 13.1503C22.0009 13.4452 21.5941 13.8166 21.1686 14.1475C15.2184 18.7723 9.15267 19.6541 1.96848 19.6447C2.37589 10.9209 10.1643 3.82787 18.825 3.74497Z" fill="#4AA41C"/>
<path d="M24.922 13.2612C25.1425 13.3834 25.7588 14.5831 25.9702 14.9069C28.1253 18.2078 32.5406 21.7648 36.6219 21.4897C36.4829 22.5833 36.3885 23.674 36.0832 24.7387C33.4453 33.9378 23.2634 39.1593 14.207 36.5591C7.68824 34.5616 2.24288 28.4116 1.96848 21.4897C10.7261 21.5018 18.5656 19.9255 24.922 13.2612Z" fill="#4AA41C"/>
<path d="M24.5354 22.1447C26.5667 22.0357 27.0412 24.7641 25.004 25.2097C22.6764 25.2935 22.4388 22.6477 24.5354 22.1447Z" fill="black"/>
<path d="M13.0593 22.168C15.0829 21.8413 15.8413 24.6392 13.7034 25.2329C11.6152 25.5371 10.9743 22.6366 13.0593 22.168Z" fill="black"/>
<path d="M16.1564 29.9458C17.3322 29.8853 17.1968 30.8398 17.6241 31.6341C18.5311 33.3209 20.6671 32.9193 21.2331 30.7587C21.5269 29.6368 22.6586 29.7012 23.1212 30.6226C23.1179 31.1845 23.0267 31.7262 22.8438 32.2577C21.4787 35.1767 17.2425 35.2993 15.7974 32.3078C15.393 31.4707 15.1178 30.3859 16.1564 29.9458Z" fill="black"/>
<path d="M30.4696 0.00959068C31.9208 -0.109576 31.8788 0.900298 32.3213 2.00763C33.6388 5.30479 37.5926 5.19312 37.1787 6.81851C36.9889 7.56381 35.6556 7.8679 35.0487 8.16433C32.1635 9.57387 32.4154 12.2271 31.277 12.8322C29.6644 13.0464 29.7913 11.8755 29.2279 10.7273C27.8162 7.85056 25.3974 8.19744 24.6955 7.09573C24.0445 6.07383 25.366 5.52626 26.1022 5.18297C29.7275 3.49245 29.2039 0.592619 30.4696 0.00959068Z" fill="black"/>
<path d="M30.6464 3.12984C31.3788 3.0697 31.3576 3.57936 31.5809 4.13819C32.2458 5.80218 34.2411 5.74582 34.0323 6.56611C33.9365 6.94224 33.2636 7.09571 32.9573 7.24531C31.5013 7.95667 31.6284 9.29568 31.0539 9.60103C30.24 9.70917 30.304 9.11825 30.0197 8.53876C29.3073 7.08696 28.0866 7.26202 27.7324 6.70602C27.4038 6.19029 28.0707 5.91395 28.4423 5.7407C30.2719 4.88754 30.0076 3.42408 30.6464 3.12984Z" fill="url(#paint0_radial_667_7243)" fill-opacity="0.75"/>
<defs>
<radialGradient id="paint0_radial_667_7243" cx="0" cy="0" r="1" gradientUnits="userSpaceOnUse" gradientTransform="translate(30.8458 6.36946) rotate(134.62) scale(4.55825 4.55785)">
<stop stop-color="#7BFF00"/>
<stop offset="1" stop-color="#006330"/>
</radialGradient>
</defs>
</svg>
