<svg width="159" height="35" viewBox="0 0 159 35" fill="none" xmlns="http://www.w3.org/2000/svg">
<g clip-path="url(#clip0_519_34736)">
<path d="M16.6052 5.85031C16.6052 2.50681 16.6052 0.83505 15.6208 0.208143C14.6364 -0.418764 13.3239 0.417113 10.6989 2.08887L8.8012 3.29739C6.17618 4.96915 4.86367 5.80502 4.86367 7.05884C4.86367 8.31265 6.17618 9.14853 8.8012 10.8203L10.6989 12.0288C13.3239 13.7006 14.6364 14.5364 15.6208 13.9095C16.6052 13.2826 16.6052 11.6109 16.6052 8.26737V5.85031Z" fill="url(#paint0_radial_519_34736)" fill-opacity="0.75"/>
<path d="M7.90629 12.53C5.28127 10.8583 3.96876 10.0224 2.98438 10.6493C2 11.2762 2 12.948 2 16.2915V18.7085C2 22.052 2 23.7238 2.98438 24.3507C3.96876 24.9776 5.28127 24.1417 7.90629 22.47L9.80395 21.2614C12.429 19.5897 13.7415 18.7538 13.7415 17.5C13.7415 16.2462 12.429 15.4103 9.80395 13.7386L7.90629 12.53Z" fill="url(#paint1_radial_519_34736)" fill-opacity="0.75"/>
<path d="M8.8012 24.1797C6.17618 25.8515 4.86367 26.6873 4.86367 27.9412C4.86367 29.195 6.17618 30.0308 8.8012 31.7026L10.6989 32.9111C13.3239 34.5829 14.6364 35.4188 15.6208 34.7919C16.6052 34.1649 16.6052 32.4932 16.6052 29.1497V26.7326C16.6052 23.3891 16.6052 21.7174 15.6208 21.0905C14.6364 20.4635 13.3239 21.2994 10.6989 22.9712L8.8012 24.1797Z" fill="url(#paint2_radial_519_34736)" fill-opacity="0.75"/>
<path d="M18.3949 29.1496C18.3949 32.4931 18.3949 34.1649 19.3793 34.7918C20.3637 35.4187 21.6762 34.5828 24.3012 32.9111L26.1988 31.7026C28.8239 30.0308 30.1364 29.195 30.1364 27.9411C30.1364 26.6873 28.8239 25.8514 26.1988 24.1797L24.3012 22.9712C21.6762 21.2994 20.3637 20.4636 19.3793 21.0905C18.3949 21.7174 18.3949 23.3891 18.3949 26.7326V29.1496Z" fill="url(#paint3_radial_519_34736)" fill-opacity="0.75"/>
<path d="M27.0937 22.4699C29.7187 24.1417 31.0312 24.9776 32.0156 24.3507C33 23.7237 33 22.052 33 18.7085V16.2915C33 12.948 33 11.2762 32.0156 10.6493C31.0312 10.0224 29.7187 10.8583 27.0937 12.5301L25.1961 13.7386C22.5711 15.4103 21.2586 16.2462 21.2586 17.5C21.2586 18.7538 22.5711 19.5897 25.1961 21.2614L27.0937 22.4699Z" fill="url(#paint4_radial_519_34736)" fill-opacity="0.75"/>
<path d="M26.1988 10.8203C28.8239 9.14855 30.1364 8.31268 30.1364 7.05886C30.1364 5.80505 28.8239 4.96917 26.1988 3.29742L24.3012 2.08892C21.6762 0.417171 20.3637 -0.418705 19.3793 0.208202C18.3949 0.83511 18.3949 2.50686 18.3949 5.85037V8.26735C18.3949 11.6109 18.3949 13.2826 19.3793 13.9095C20.3637 14.5364 21.6762 13.7006 24.3012 12.0288L26.1988 10.8203Z" fill="url(#paint5_radial_519_34736)" fill-opacity="0.75"/>
</g>
<path d="M47.84 19.984C47.84 22.888 45.632 25 42.584 25H36.8V9.16H42.08C44.192 9.16 45.92 10.864 45.92 12.976C45.92 14.272 45.512 15.28 44.312 15.784C45.992 16.096 47.84 17.392 47.84 19.984ZM38.816 14.968H42.056C43.496 14.968 43.928 14.08 43.928 12.976C43.928 11.848 43.064 10.984 42.032 10.984H38.816V14.968ZM38.816 23.176H42.08C44.672 23.176 45.848 21.856 45.848 19.984C45.848 18.376 44.816 16.816 42.464 16.816H38.816V23.176ZM50.8302 29.536L54.5023 23.248L48.8622 13.672H51.1422L55.6302 21.328L60.0703 13.672H62.2783L53.0862 29.536H50.8302ZM67.8704 25.144C65.5424 25.144 64.8704 23.752 64.8704 21.616V15.328H63.0944V13.528H64.8704V9.16H66.8384V13.528H70.2464V15.328H66.8384V21.376C66.8384 22.648 67.1744 23.296 68.1344 23.296C68.8064 23.296 69.3584 23.08 69.7904 22.768L70.6304 24.304C69.9584 24.784 68.8784 25.144 67.8704 25.144ZM82.4894 22.552C81.9854 23.44 80.5934 25.24 77.5694 25.24C73.6814 25.24 71.7854 22.312 71.7854 19.144C71.7854 15.904 73.7534 13.384 77.3054 13.384C80.7854 13.384 83.0414 15.952 82.3934 19.744H73.7774C73.9934 22.216 75.5294 23.44 77.5694 23.44C79.5614 23.44 80.5214 22.528 80.9774 21.376L82.4894 22.552ZM77.3054 15.016C75.5054 15.016 74.1134 16.024 73.8014 18.232H80.4494C80.5454 16.288 79.4414 15.016 77.3054 15.016ZM89.2049 25.144C86.7569 25.144 84.9089 23.704 84.2129 22.816L85.6769 21.592C86.4209 22.48 87.5489 23.32 89.2049 23.32C90.9809 23.32 92.5169 22.504 92.5169 20.824C92.5169 18.712 90.9089 18.184 88.9889 17.368C87.2369 16.672 85.0289 15.568 85.0289 13.048C85.0289 10.696 87.0929 9.016 89.3729 9.016C91.6049 9.016 92.8289 9.976 93.6689 10.96L92.3009 12.232C91.6529 11.56 90.9089 10.864 89.3729 10.864C88.0769 10.864 87.0449 11.728 87.0449 13.048C87.0449 14.32 88.0529 14.968 89.7569 15.664C92.1809 16.648 94.5089 17.536 94.5089 20.824C94.5089 23.728 91.8689 25.144 89.2049 25.144ZM97.8478 12.496C96.9598 12.496 96.2638 11.8 96.2638 10.912C96.2638 10.048 96.9598 9.352 97.8478 9.352C98.6878 9.352 99.3838 10.048 99.3838 10.912C99.3838 11.8 98.6878 12.496 97.8478 12.496ZM96.8878 25V13.672H98.8318V25H96.8878ZM101.385 25V23.584L108.081 15.592H101.385V13.648H111.009V14.968L104.193 23.104H110.961V25H101.385ZM123.598 22.552C123.094 23.44 121.702 25.24 118.678 25.24C114.79 25.24 112.894 22.312 112.894 19.144C112.894 15.904 114.862 13.384 118.414 13.384C121.894 13.384 124.15 15.952 123.502 19.744H114.886C115.102 22.216 116.638 23.44 118.678 23.44C120.67 23.44 121.63 22.528 122.086 21.376L123.598 22.552ZM118.414 15.016C116.614 15.016 115.222 16.024 114.91 18.232H121.558C121.654 16.288 120.55 15.016 118.414 15.016ZM136.385 9.16V25H134.417V23.632C133.697 24.616 132.617 25.144 131.153 25.144C127.913 25.144 125.321 22.624 125.321 19.336C125.321 16.048 127.769 13.552 131.033 13.552C132.473 13.552 133.601 13.96 134.417 15.04V9.16H136.385ZM131.033 15.352C128.945 15.352 127.289 17.008 127.289 19.336C127.289 21.688 129.041 23.32 131.153 23.32C133.001 23.32 134.033 22.336 134.417 21.376V17.368C133.961 16.336 132.809 15.352 131.033 15.352ZM150.493 25L148.933 20.992H141.973L140.413 25H138.301L144.517 9.16H146.413L152.605 25H150.493ZM142.693 19.168H148.213L145.453 12.112L142.693 19.168ZM154.981 25V9.16H156.997V25H154.981Z" fill="white"/>
<defs>
<radialGradient id="paint0_radial_519_34736" cx="0" cy="0" r="1" gradientUnits="userSpaceOnUse" gradientTransform="translate(17.5 17.5) rotate(131.532) scale(23.3773 23.2062)">
<stop stop-color="#7BFF00"/>
<stop offset="1" stop-color="#006330"/>
</radialGradient>
<radialGradient id="paint1_radial_519_34736" cx="0" cy="0" r="1" gradientUnits="userSpaceOnUse" gradientTransform="translate(17.5 17.5) rotate(131.532) scale(23.3773 23.2062)">
<stop stop-color="#7BFF00"/>
<stop offset="1" stop-color="#006330"/>
</radialGradient>
<radialGradient id="paint2_radial_519_34736" cx="0" cy="0" r="1" gradientUnits="userSpaceOnUse" gradientTransform="translate(17.5 17.5) rotate(131.532) scale(23.3773 23.2062)">
<stop stop-color="#7BFF00"/>
<stop offset="1" stop-color="#006330"/>
</radialGradient>
<radialGradient id="paint3_radial_519_34736" cx="0" cy="0" r="1" gradientUnits="userSpaceOnUse" gradientTransform="translate(17.5 17.5) rotate(131.532) scale(23.3773 23.2062)">
<stop stop-color="#7BFF00"/>
<stop offset="1" stop-color="#006330"/>
</radialGradient>
<radialGradient id="paint4_radial_519_34736" cx="0" cy="0" r="1" gradientUnits="userSpaceOnUse" gradientTransform="translate(17.5 17.5) rotate(131.532) scale(23.3773 23.2062)">
<stop stop-color="#7BFF00"/>
<stop offset="1" stop-color="#006330"/>
</radialGradient>
<radialGradient id="paint5_radial_519_34736" cx="0" cy="0" r="1" gradientUnits="userSpaceOnUse" gradientTransform="translate(17.5 17.5) rotate(131.532) scale(23.3773 23.2062)">
<stop stop-color="#7BFF00"/>
<stop offset="1" stop-color="#006330"/>
</radialGradient>
<clipPath id="clip0_519_34736">
<rect width="35" height="35" fill="white"/>
</clipPath>
</defs>
</svg>
