<svg width="1037" height="742" viewBox="0 0 1037 742" fill="none" xmlns="http://www.w3.org/2000/svg">
<path opacity="0.4" d="M553.054 680.149C822.958 769.24 1042.62 744.334 1032.37 712.79C1063.83 675.379 919.135 685.195 982.34 506.523C1061.35 283.183 889.144 475.043 793.886 539.712C698.629 604.381 594.738 372.892 559.805 265.72C536.222 182.303 449.261 18.8001 290.087 32.1176C91.118 48.7647 -309.487 -61.549 -300.394 53.268C-291.301 168.085 -366.382 158.998 -85.1091 240.939C196.164 322.88 297.125 289.982 231.162 427.495C178.392 537.506 165.898 470.13 150.388 476.061C119.935 683.939 215.674 568.785 553.054 680.149Z" fill="#8700FF" fill-opacity="0.8"/>
</svg>
